<svg width="36" height="36" viewBox="0 0 36 36" fill="none" xmlns="http://www.w3.org/2000/svg">
<circle cx="18" cy="18" r="18" fill="#ECE9FF"/>
<path d="M24.75 20.9999V14.9999C24.7497 14.7369 24.6803 14.4785 24.5487 14.2508C24.417 14.0231 24.2278 13.8339 24 13.7024L18.75 10.7024C18.522 10.5708 18.2633 10.5015 18 10.5015C17.7367 10.5015 17.478 10.5708 17.25 10.7024L12 13.7024C11.7722 13.8339 11.583 14.0231 11.4513 14.2508C11.3197 14.4785 11.2503 14.7369 11.25 14.9999V20.9999C11.2503 21.263 11.3197 21.5213 11.4513 21.7491C11.583 21.9768 11.7722 22.1659 12 22.2974L17.25 25.2974C17.478 25.4291 17.7367 25.4984 18 25.4984C18.2633 25.4984 18.522 25.4291 18.75 25.2974L24 22.2974C24.2278 22.1659 24.417 21.9768 24.5487 21.7491C24.6803 21.5213 24.7497 21.263 24.75 20.9999Z" stroke="#877AD8" stroke-width="1.6" stroke-linecap="round" stroke-linejoin="round"/>
<path d="M11.4524 14.22L17.9999 18.0075L24.5474 14.22" stroke="#877AD8" stroke-width="1.6" stroke-linecap="round" stroke-linejoin="round"/>
<path d="M18 25.56V18" stroke="#877AD8" stroke-width="1.6" stroke-linecap="round" stroke-linejoin="round"/>
</svg>
